<svg
  [attr.width]="width()"
  [attr.height]="height()"
  viewBox="0 0 150 139.5084286776302"
  [attr.class]="class()"
>
  <defs id="SvgjsDefs1438"></defs>
  <g
    id="SvgjsG1439"
    featurekey="rDwwlG-0"
    transform="matrix(0.7400992693981593,0,0,0.7400992693981593,25.0469413141347,-14.30514338651655)"
    [attr.fill]="fill()"
    data-darkreader-inline-fill=""
    style="
      --darkreader-inline-fill: var(--darkreader-background-fefefe, #dbd9d6);
    "
  >
    <path
      xmlns="http://www.w3.org/2000/svg"
      [attr.fill]="fill()"
      d="M67.53 19.41c9.13.02 16.92-1.66 16.41 10.99a.49.49 0 0 0 .49.51q7.92-.01 10.67-.05 5.58-.06 8.06 1.44 4.9 2.97 4.87 9.71-.14 28.88-.17 45.97-.01 6.09-4.75 8.83-2.57 1.49-8.5 1.5-6.78.02-27.19-.01-20.41-.02-27.19-.06-5.93-.03-8.49-1.53-4.74-2.75-4.73-8.84.02-17.09-.05-45.97-.01-6.74 4.9-9.7 2.48-1.49 8.06-1.41 2.75.04 10.67.07a.49.49 0 0 0 .49-.5c-.47-12.66 7.31-10.96 16.45-10.95M56.92 30.87l21.24-.04a.39.39 0 0 0 .39-.39v-2.63a2.78 2.66-.1 0 0-2.78-2.65l-16.46.02a2.78 2.66-.1 0 0-2.78 2.67v2.63a.39.39 0 0 0 .39.39m10.55 62.68q28.1.01 29.32-.01c5.2-.11 6.56-2.61 6.58-7.67q.06-21.81.02-43.62c0-4.7-2.11-6.79-6.7-6.75q-4.95.03-12.21.02-.52 0-.54.51c-.18 4.95-.21 8.49-4.26 10.51-2.94 1.47-7.31.85-12.19.85-4.89 0-9.26.62-12.2-.86-4.05-2.02-4.07-5.56-4.25-10.51q-.02-.51-.54-.51-7.26 0-12.21-.03c-4.59-.05-6.7 2.04-6.71 6.74q-.05 21.81-.01 43.62c.02 5.06 1.37 7.56 6.57 7.67q1.23.03 29.33.04m10.62-57.91-21.16-.04a.47.47 0 0 0-.48.47v2.77a2.86 2.77-89.9 0 0 2.76 2.87l16.56.02a2.86 2.77-89.9 0 0 2.78-2.85v-2.77a.47.47 0 0 0-.46-.47"
    ></path>
  </g>
  <g
    id="SvgjsG1440"
    featurekey="4AZ1rv-0"
    transform="matrix(4.4636012781363155,0,0,4.4636012781363155,-2.3873406543859055,48.9865938205249)"
    [attr.fill]="fill()"
    data-darkreader-inline-fill=""
    style="
      --darkreader-inline-fill: var(--darkreader-background-f6f7f9, #d7d4d1);
    "
  >
    <path
      d="M0.54 16.34 l3.3 -0.68 c0.02 1.4 1.1 1.84 2.2 1.84 c1.04 0 1.64 -0.38 1.64 -1 c0 -2.1 -6.78 -1.14 -6.78 -5.94 c0 -2.64 2.04 -4.06 5.1 -4.06 c3.08 0 5.02 1.46 4.92 3.58 l-3.3 0.68 c-0.02 -0.54 -0.14 -1.48 -1.7 -1.48 c-1.08 0 -1.62 0.44 -1.62 1.04 c0 2.18 6.78 1.04 6.78 5.82 c0 2.4 -1.7 4.14 -5.08 4.14 c-3.6 0 -5.58 -1.96 -5.46 -3.94 z M13.12 20 l0 -13.22 l3.36 0 l0 13.22 l-3.36 0 z M19.2 20 l0 -13.22 l4.4 0 l2.54 7.56 c0.1 0.32 0.32 1.04 0.54 1.84 c0.22 -0.82 0.42 -1.54 0.54 -1.88 l2.46 -7.52 l4.46 0 l0 13.22 l-3.26 0 l0 -5.06 c0 -0.98 0.06 -2.46 0.16 -3.86 c-0.44 1.36 -0.88 2.8 -1.2 3.72 l-1.78 5.2 l-2.8 0 l-1.86 -5.28 c-0.32 -0.9 -0.72 -2.16 -1.08 -3.38 c0.08 1.28 0.14 2.6 0.14 3.48 l0 5.18 l-3.26 0 z"
    ></path>
  </g>
</svg>
